<svg xmlns="http://www.w3.org/2000/svg" viewBox="0 0 450 300"><defs><style>.a{fill:#282828;}.b{fill:#9e9e9e;}.c{fill:#a6a6a6;}.d{fill:#002f33;}.e{fill:#b2b2b2;}.f{fill:#666;}.g{fill:#737373;}.h{fill:#c4986c;}.i{fill:none;}.j{fill:#bb9167;}.k{fill:#aa7b50;}.l{fill:#464646;}.m{fill:#479cdf;}.n{fill:#d8b094;}.o{fill:#e26c41;}.p{fill:#ffa940;}.q{fill:#00b294;}.r{fill:#005850;}.s{fill:#008272;}.t{fill:#cbe247;}.u{fill:#adc909;}.v{fill:#e6e6e6;}</style></defs><title>swimlane-shared-full-context</title><path class="a" d="M342.774,45.771H109.349a3.987,3.987,0,0,0-3.924,4.137V200.724H346.7V49.908A3.987,3.987,0,0,0,342.774,45.771Z"/><path class="b" d="M342.453,45.693v-.63H108.725a4.688,4.688,0,0,0-4.715,4.916V201.432h243.4V49.72a4.806,4.806,0,0,0-4.953-4.925v1.748a3.288,3.288,0,0,1,2.411.985,2.1,2.1,0,0,1,.419,2.369v150.12H106.132V49.834a3.3,3.3,0,0,1,.977-2.37,2.815,2.815,0,0,1,2.159-.985H342.453Z"/><polygon class="c" points="347.029 192.941 104.814 192.941 81.823 251.667 369.821 251.667 347.029 192.941"/><path class="d" d="M361.182,255.205H90.24c-4.935,0-8.872-1.314-8.872-2.627v-.2H370.047v.2C370.047,253.892,366.111,255.205,361.182,255.205Z"/><polygon class="e" points="308.329 251.667 369.953 251.667 347.161 192.941 249.602 192.941 308.329 251.667"/><rect class="f" x="116.745" y="57.8" width="217.924" height="125.943"/><polygon class="g" points="193.717 214.875 205.376 214.875 205.771 206.385 194.506 206.385 193.717 214.875"/><polygon class="g" points="206.219 197.186 195.266 197.186 194.646 204.969 205.815 204.969 206.219 197.186"/><polygon class="g" points="233.491 214.875 245.157 214.875 244.762 206.385 233.491 206.385 233.491 214.875"/><polygon class="g" points="233.491 204.969 244.659 204.969 244.464 197.186 233.491 197.186 233.491 204.969"/><polygon class="g" points="246.009 204.969 257.178 204.969 256.578 197.186 245.611 197.186 246.009 204.969"/><polygon class="g" points="193.823 197.186 182.87 197.186 181.872 204.969 193.027 204.969 193.823 197.186"/><polygon class="g" points="167.347 214.875 179.014 214.875 179.996 206.385 168.745 206.385 167.347 214.875"/><polygon class="g" points="156.292 204.969 167.441 204.969 168.85 197.186 157.884 197.186 156.292 204.969"/><polygon class="g" points="180.532 214.875 192.198 214.875 192.987 206.385 181.735 206.385 180.532 214.875"/><polygon class="g" points="169.078 204.969 180.233 204.969 181.427 197.186 170.474 197.186 169.078 204.969"/><polygon class="g" points="344.942 214.875 342.375 206.385 310.345 206.385 312.518 214.875 344.942 214.875"/><polygon class="g" points="309.971 204.969 321.14 204.969 318.746 197.186 307.779 197.186 309.971 204.969"/><polygon class="g" points="320.369 197.186 322.764 204.969 333.932 204.969 331.14 197.186 320.369 197.186"/><polygon class="g" points="284.618 206.385 286.002 214.875 297.661 214.875 295.883 206.385 284.618 206.385"/><polygon class="g" points="311.04 214.875 308.673 206.385 297.408 206.385 299.38 214.875 311.04 214.875"/><polygon class="g" points="271.828 206.385 272.817 214.875 284.477 214.875 283.099 206.385 271.828 206.385"/><polygon class="g" points="297.177 204.969 308.346 204.969 306.356 197.186 295.383 197.186 297.177 204.969"/><polygon class="g" points="271.597 204.969 282.766 204.969 281.565 197.186 270.397 197.186 271.597 204.969"/><polygon class="g" points="258.803 204.969 269.972 204.969 268.974 197.186 258.007 197.186 258.803 204.969"/><polygon class="g" points="259.633 214.875 271.292 214.875 270.109 206.385 258.844 206.385 259.633 214.875"/><polygon class="g" points="246.448 214.875 258.114 214.875 257.325 206.385 246.053 206.385 246.448 214.875"/><polygon class="g" points="284.383 204.969 295.552 204.969 293.96 197.186 282.994 197.186 284.383 204.969"/><polygon class="g" points="335.548 204.969 347.115 204.969 344.127 197.186 332.763 197.186 335.548 204.969"/><polygon class="g" points="298.05 216.29 286.382 216.29 287.78 224.781 300.044 224.781 298.05 216.29"/><polygon class="g" points="311.427 216.29 299.558 216.29 301.552 224.781 313.622 224.781 311.427 216.29"/><polygon class="g" points="284.868 216.29 272.999 216.29 274.203 224.781 286.253 224.781 284.868 216.29"/><polygon class="g" points="324.609 216.29 312.954 216.29 315.129 224.781 327.199 224.781 324.609 216.29"/><polygon class="g" points="339.512 216.29 342.476 224.781 354.941 224.781 351.562 216.29 339.512 216.29"/><polygon class="g" points="337.992 216.29 326.33 216.29 328.899 224.781 340.969 224.781 337.992 216.29"/><polygon class="g" points="167.213 206.385 155.961 206.385 154.163 214.875 165.829 214.875 167.213 206.385"/><polygon class="g" points="143.498 204.969 154.647 204.969 156.461 197.186 145.488 197.186 143.498 204.969"/><polygon class="g" points="178.825 216.29 166.956 216.29 165.571 224.781 177.641 224.781 178.825 216.29"/><polygon class="g" points="271.707 216.29 266.769 216.29 260.032 216.29 180.124 216.29 178.933 224.781 260.64 224.781 265.98 224.781 272.891 224.781 271.707 216.29"/><polygon class="g" points="218.632 197.186 207.666 197.186 207.463 204.969 218.632 204.969 218.632 197.186"/><rect class="g" x="220.047" y="197.186" width="11.321" height="7.783"/><polygon class="g" points="220.047 206.385 220.047 214.875 218.632 214.875 218.632 206.385 207.374 206.385 206.985 214.875 231.368 214.875 231.368 206.385 220.047 206.385"/><path class="g" d="M275.82,246.979,273.841,229.6a2.051,2.051,0,0,0-2.185-1.985H180.372A2.326,2.326,0,0,0,178.2,229.4l-2.961,17.383a2.358,2.358,0,0,0,2.172,2.76h96.217A2.2,2.2,0,0,0,275.82,246.979Z"/><polygon class="g" points="154.423 206.385 143.171 206.385 140.784 214.875 152.45 214.875 154.423 206.385"/><polygon class="g" points="165.449 216.29 153.774 216.29 151.8 224.781 164.064 224.781 165.449 216.29"/><polygon class="g" points="127.6 214.875 139.266 214.875 141.439 206.385 130.187 206.385 127.6 214.875"/><polygon class="g" points="112.331 216.29 100.412 216.29 97.248 224.781 109.367 224.781 112.331 216.29"/><polygon class="g" points="116.297 204.969 119.082 197.186 107.516 197.186 104.528 204.969 116.297 204.969"/><polygon class="g" points="114.415 214.875 126.081 214.875 128.648 206.385 117.397 206.385 114.415 214.875"/><polygon class="g" points="100.844 214.875 112.898 214.875 115.665 206.385 104.019 206.385 100.844 214.875"/><polygon class="g" points="122.945 224.781 125.507 216.29 113.838 216.29 110.874 224.781 122.945 224.781"/><polygon class="g" points="117.911 204.969 129.067 204.969 131.474 197.186 120.704 197.186 117.911 204.969"/><polygon class="g" points="152.266 216.29 140.397 216.29 138.222 224.781 150.292 224.781 152.266 216.29"/><polygon class="g" points="138.89 216.29 127.214 216.29 124.645 224.781 136.715 224.781 138.89 216.29"/><polygon class="g" points="130.704 204.969 141.859 204.969 144.065 197.186 133.098 197.186 130.704 204.969"/><path class="h" d="M394.478,148l-6.506-30.768-33.734,7.316L321.9,90.244h0l-24.073-5.873a7.081,7.081,0,0,0,5.124,8.6l13.729,3.252,5.42,5.749-12.12-5.836h0l-33.24-3.613a6.89,6.89,0,0,0,6.136,7.641l24.715,2.715,13.43,6.093-17.189-5.34-31.857,1.472a6.9,6.9,0,0,0,7.266,6.576l22.742-.961,17.213,4.019s-17.778-4.222-20.61-1.163c-2.948,3.184-11.557,10.967-11.557,10.967,1.061,2.712,6,5,9.2,3.066,3.891-2.359,10.259-6.957,10.259-6.957,7.429,2,23.732,4.894,26.327,14.092,1.262,4.476-2.283,6.515-6.751,4.068a156.051,156.051,0,0,0-15.566-7.665c-5.189-1.3-8.054,1.086-10.126,4.532,12.616,7.51,26.555,16.056,29.937,17.874C338.207,157.8,394.478,148,394.478,148Z"/><path class="i" d="M354.238,124.549a59.968,59.968,0,0,0,5.285,4.536s21.1-3.206,29.9-4.971l-1.455-6.88Z"/><path class="j" d="M186.818,150.892l-14.894-1.331a5.613,5.613,0,0,1,1-11.182l14.893,1.331a5.613,5.613,0,1,1-1,11.182Z"/><path class="j" d="M188,160.845l-36.74-3.284a5.613,5.613,0,0,1,1-11.182L189,149.663a5.613,5.613,0,1,1-1,11.182Z"/><path class="j" d="M188.048,129.99l-36.74-3.284a5.613,5.613,0,0,1,1-11.182l36.74,3.284a5.613,5.613,0,0,1-1,11.182Z"/><path class="j" d="M191.29,140.434l-19.827-1.772a5.613,5.613,0,0,1,1-11.182l19.827,1.772a5.613,5.613,0,0,1-1,11.182Z"/><path class="j" d="M111.635,109.2l-.822,5.241-22.551-3.538-3.813,24.3L107,138.744c.235,1.034,6.213,12.528,21.42,13.324,0,0,5.638.525,16.45,1.427,0,0,8.844-1.061,9.276-4.167l5.123-32.65Z"/><path class="k" d="M145.1,122.592c-6.989-3.3-19.1,1.092-19.1,1.092s8.775-7.76,11.878-8.706,7.151,1.065,7.285,1.355S145.1,122.592,145.1,122.592Z"/><rect class="l" x="140.802" y="89.639" width="104.717" height="81.368"/><rect class="e" x="161.321" y="96.007" width="26.179" height="4.245"/><rect class="m" x="173.349" y="105.913" width="14.151" height="4.245"/><rect class="e" x="191.038" y="105.913" width="24.764" height="4.245"/><rect class="e" x="173.349" y="115.819" width="20.519" height="4.245"/><rect class="e" x="197.406" y="115.819" width="27.594" height="4.245"/><rect class="m" x="161.321" y="125.724" width="27.594" height="4.245"/><rect class="e" x="161.321" y="136.337" width="73.585" height="4.245"/><rect class="m" x="173.349" y="146.243" width="16.981" height="4.245"/><rect class="e" x="193.16" y="146.243" width="16.981" height="4.245"/><rect class="e" x="187.5" y="156.149" width="32.547" height="4.245"/><rect class="e" x="148.585" y="96.007" width="4.953" height="4.245"/><rect class="e" x="148.585" y="105.913" width="4.953" height="4.245"/><rect class="e" x="148.585" y="115.819" width="4.953" height="4.245"/><rect class="e" x="148.585" y="125.724" width="4.953" height="4.245"/><rect class="e" x="148.585" y="136.337" width="4.953" height="4.245"/><rect class="e" x="148.585" y="146.243" width="4.953" height="4.245"/><rect class="e" x="148.585" y="156.149" width="4.953" height="4.245"/><path class="n" d="M148.113,104.68l-24.5-3.844s-1.575-.145-22.612-2.9c-1.351,8.611-2.218,13.835-2.887,18.067.207.3,1.892,1.555,2.105,1.867,16.117,16.682,35.036,2.715,35.036,2.715,5.774-3.87,11.68.438,16.228,3.139a14.47,14.47,0,0,0,14.463.477c4.084-1.939,4.928-4.791,4.928-4.791Z"/><rect class="a" x="225.707" y="71.95" width="89.151" height="75.708"/><rect class="o" x="232.783" y="79.026" width="18.396" height="3.538"/><rect class="p" x="232.783" y="91.762" width="14.858" height="3.538"/><rect class="m" x="239.151" y="98.837" width="12.736" height="3.538"/><rect class="m" x="251.179" y="91.762" width="34.67" height="3.538"/><rect class="m" x="254.717" y="98.837" width="55.189" height="3.538"/><rect class="q" x="245.519" y="106.62" width="17.689" height="3.538"/><rect class="m" x="266.745" y="106.62" width="26.179" height="3.538"/><rect class="p" x="251.887" y="120.771" width="17.689" height="3.538"/><rect class="m" x="273.113" y="120.771" width="34.67" height="3.538"/><rect class="o" x="251.887" y="127.847" width="17.689" height="3.538"/><rect class="m" x="261.085" y="134.922" width="17.689" height="3.538"/><rect class="m" x="273.113" y="127.847" width="24.764" height="3.538"/><path class="h" d="M323.092,137.216c-8.052-4.265-12.6-6.068-12.6-6.068-5.189-1.3-8.054,1.086-10.126,4.532,8.246,4.908,17.056,10.259,23.115,13.885Z"/><path class="r" d="M86.106,100.044c-5.291-.628-60.014-5.717-60.6-5.808-.3-.047-13.124-2.276-25.509-4.518v44.663c6.366.552,12.354.9,16.47,1.091,13.608.64,65.288.312,65.288.312l3.17-20.2C88.072,95.546,86.106,100.044,86.106,100.044Z"/><path class="s" d="M84.2,95.4C43.672,90.6,17.465,87.292,0,84.334V96.7c6.431.822,12.834,1.362,17.647,1.931,17.1,2.018,69.112,5.273,69.112,5.273C87.648,100.856,84.2,95.4,84.2,95.4Z"/><path class="t" d="M450,96.064a587.936,587.936,0,0,1-61.775,21.111L394.731,148,450,141.275Z"/><path class="u" d="M450,106.429c-18.5,6.358-40.47,13.18-60.337,17.558L394.731,148,450,141.275Z"/><path class="v" d="M77.434,135.9c6.313-40.238,6.322-40.639,6.322-40.639C87.733,95.726,101,97.5,101,97.5c-4.574,29.153-4.4,28.858-4.4,28.858-.947,6.036-6.054,9.516-12.269,9.628C80.882,136.044,77.434,135.9,77.434,135.9Z"/></svg>