<svg xmlns="http://www.w3.org/2000/svg" xmlns:xlink="http://www.w3.org/1999/xlink" viewBox="0 0 450 300"><defs><style>.a{fill:none;}.b{fill:#6597bf;}.c{fill:#fff;}.d{fill:#99bcd7;}.e{fill:#505050;}.f{fill:#282828;}.g{fill:#002050;}.h{fill:#c8c8c8;}.i{fill:#bad80a;}.j{fill:#0078d7;}.k{fill:#ffb900;}.l{fill:#9080cf;}.m{fill:#532881;}.n{clip-path:url(#a);}.o{fill:#004b1c;}.p{fill:#407855;}.q{fill:#ff8c00;}.r{fill:#003c16;}.s{fill:#d6d6d6;}.t{fill:#707070;}.u{fill:#b5b5b5;}.v{fill:#d0b28d;}.w{fill:#d9c1a4;}.x{fill:#c16a29;}.y{fill:#c2a081;}.z{fill:#bc9871;}.aa{clip-path:url(#b);}.ab{fill:#7a4521;}.ac{fill:#a06740;}.ad{fill:#915e3a;}.ae{fill:#006cc1;}.af{fill:#002f33;}.ag{fill:#221f1f;}.ah{fill:#c6e7f6;}.ai{fill:#d1ecf8;}.aj{fill:#5c2d90;}.ak{fill:#40c5af;}.al{fill:#e71123;}.am{fill:#5c005c;}.an{fill:#32145a;}.ao{clip-path:url(#c);}.ap{fill:#2d1251;}.aq{fill:#281049;}.ar{fill:#e5a600;}.as{clip-path:url(#d);}.at{fill:#c4986c;}.au{fill:#b38a62;}.av{fill:#b08961;}.aw{fill:#e5e5e5;}.ax{fill:#7a4622;}.ay{fill:#ee4d5a;}.az{fill:#fbb615;}.ba{clip-path:url(#e);}.bb{fill:#107c10;}.bc{fill:#e6c3ae;}.bd{fill:#f7d7c4;}.be{fill:#bb9167;}</style><clipPath id="a"><circle class="a" cx="202.819" cy="256.547" r="38.453"/></clipPath><clipPath id="b"><circle class="a" cx="232.871" cy="61.685" r="38.453"/></clipPath><clipPath id="c"><polygon class="a" points="259.414 47.77 259.27 47.914 258.976 48.357 259.563 48.945 260.007 48.357 259.414 47.77"/></clipPath><clipPath id="d"><circle class="a" cx="399.231" cy="198.947" r="38.453"/></clipPath><clipPath id="e"><circle class="a" cx="50.768" cy="169.61" r="38.453"/></clipPath></defs><title>swimlane-collaborative-editing</title><rect class="b" x="37.889" y="39.384" width="327.713" height="223.961"/><rect class="c" x="47.191" y="78.023" width="308.393" height="175.305"/><rect class="c" x="291.902" y="48.686" width="62.967" height="11.448"/><rect class="d" x="47.191" y="46.539" width="107.329" height="5.724"/><rect class="e" x="205.323" y="39.384" width="171.917" height="223.961"/><rect class="f" x="216.771" y="68.721" width="160.279" height="194.624"/><polygon class="g" points="208.185 69.436 37.889 69.436 37.889 71.13 37.889 78.751 37.889 263.345 47.191 263.345 47.191 78.738 208.185 78.738 208.185 69.436"/><rect class="h" x="56.493" y="91.618" width="5.009" height="4.293"/><rect class="h" x="56.493" y="101.635" width="5.009" height="4.293"/><rect class="h" x="56.493" y="111.653" width="5.009" height="4.293"/><rect class="h" x="56.493" y="121.67" width="5.009" height="4.293"/><rect class="h" x="56.493" y="132.403" width="5.009" height="4.293"/><rect class="h" x="56.493" y="142.42" width="5.009" height="4.293"/><rect class="h" x="56.493" y="152.438" width="5.009" height="4.293"/><rect class="h" x="56.493" y="162.455" width="5.009" height="4.293"/><rect class="h" x="56.493" y="173.188" width="5.009" height="4.293"/><rect class="h" x="56.493" y="183.206" width="5.009" height="4.293"/><rect class="h" x="56.493" y="193.223" width="5.009" height="4.293"/><rect class="h" x="56.493" y="203.24" width="5.009" height="4.293"/><rect class="h" x="56.493" y="213.258" width="5.009" height="4.293"/><rect class="h" x="56.493" y="223.991" width="5.009" height="4.293"/><rect class="h" x="56.493" y="234.008" width="5.009" height="4.293"/><rect class="e" x="226.073" y="91.618" width="5.009" height="4.293"/><rect class="e" x="226.073" y="101.635" width="5.009" height="4.293"/><rect class="e" x="226.073" y="111.653" width="5.009" height="4.293"/><rect class="e" x="226.073" y="121.67" width="5.009" height="4.293"/><rect class="e" x="226.073" y="132.403" width="5.009" height="4.293"/><rect class="e" x="226.073" y="142.42" width="5.009" height="4.293"/><rect class="e" x="226.073" y="152.438" width="5.009" height="4.293"/><rect class="e" x="226.073" y="162.455" width="5.009" height="4.293"/><rect class="e" x="226.073" y="173.188" width="5.009" height="4.293"/><rect class="e" x="226.073" y="183.206" width="5.009" height="4.293"/><rect class="e" x="226.073" y="193.223" width="5.009" height="4.293"/><rect class="e" x="226.073" y="203.24" width="5.009" height="4.293"/><rect class="e" x="226.073" y="213.258" width="5.009" height="4.293"/><rect class="e" x="226.073" y="223.991" width="5.009" height="4.293"/><rect class="e" x="226.073" y="234.008" width="5.009" height="4.293"/><rect class="e" x="245.393" y="91.618" width="69.406" height="4.293"/><rect class="e" x="245.393" y="111.653" width="13.595" height="4.293"/><rect class="e" x="263.996" y="111.653" width="72.984" height="4.293"/><rect class="e" x="245.393" y="121.67" width="47.225" height="4.293"/><rect class="e" x="263.996" y="142.42" width="70.837" height="4.293"/><rect class="e" x="245.393" y="152.438" width="82.286" height="4.293"/><rect class="e" x="245.393" y="173.188" width="104.467" height="4.293"/><rect class="e" x="245.393" y="183.206" width="54.38" height="4.293"/><rect class="e" x="263.996" y="203.24" width="26.475" height="4.293"/><rect class="e" x="295.48" y="203.24" width="49.372" height="4.293"/><rect class="e" x="245.393" y="213.258" width="60.82" height="4.293"/><rect class="e" x="245.393" y="223.991" width="111.623" height="4.293"/><rect class="e" x="263.996" y="234.008" width="40.07" height="4.293"/><rect class="h" x="81.536" y="91.618" width="86.579" height="4.293"/><rect class="h" x="98.709" y="111.653" width="54.38" height="4.293"/><rect class="h" x="98.709" y="121.67" width="77.277" height="4.293"/><rect class="h" x="77.959" y="152.438" width="15.742" height="4.293"/><rect class="h" x="98.709" y="152.438" width="27.906" height="4.293"/><rect class="h" x="98.709" y="162.455" width="62.967" height="4.293"/><rect class="h" x="98.709" y="173.188" width="92.303" height="4.293"/><rect class="h" x="98.709" y="193.223" width="62.967" height="4.293"/><rect class="h" x="82.252" y="213.258" width="22.181" height="4.293"/><rect class="h" x="98.709" y="223.991" width="15.614" height="4.293"/><rect class="h" x="118.744" y="223.991" width="31.356" height="4.293"/><rect class="h" x="98.709" y="234.008" width="74.415" height="4.293"/><rect class="i" x="95.847" y="138.843" width="60.82" height="12.164"/><rect class="i" x="95.847" y="138.843" width="1.431" height="19.319"/><rect class="j" x="115.882" y="210.396" width="60.82" height="12.164"/><rect class="j" x="115.882" y="210.396" width="1.431" height="19.319"/><rect class="k" x="260.419" y="98.057" width="60.82" height="12.164"/><rect class="k" x="260.419" y="98.057" width="1.431" height="19.319"/><rect class="l" x="291.902" y="189.645" width="60.82" height="12.164"/><rect class="l" x="291.902" y="189.645" width="1.431" height="19.319"/><path class="m" d="M259.389,87.951l-.443.588Z"/><g class="n"><circle class="j" cx="202.819" cy="256.547" r="38.453"/><path class="o" d="M219.617,305.16H184.634l-2.558-47.283c1.19-5.983-6.993-7.01,11.44-10.931l17.047-.167c21.857,4.943,10.244,4.943,11.613,11.1Z"/><polygon class="c" points="202.039 284.504 195.386 246.946 208.859 246.946 202.039 284.504"/><path class="o" d="M197.1,279.388a4.81,4.81,0,0,0-4.776-2.57l-4.279-.514,2.391-21.17a5.2,5.2,0,0,0-4.435-5.8,5.14,5.14,0,0,0-5.63,4.6l-3.24,26.471a9.9,9.9,0,0,0-.167,2.217,5.136,5.136,0,0,0,5.457,4.776L193,286.381a5.019,5.019,0,0,0,4.6-5.457A2.752,2.752,0,0,0,197.1,279.388Z"/><path class="p" d="M192.32,276.818l-4.279-.514,1.022-9.4-1.53-3.921-1.028,9.055s-.681,5.116,0,5.8c.855,1.207,3.24,1.207,4.949,1.207l5.128-.526A4.892,4.892,0,0,0,192.32,276.818Z"/><path class="o" d="M208.084,279.388a4.81,4.81,0,0,1,4.776-2.57l4.279-.514-2.391-21.17a5.2,5.2,0,0,1,4.435-5.8,5.139,5.139,0,0,1,5.63,4.6l3.24,26.471a9.9,9.9,0,0,1,.168,2.217,5.136,5.136,0,0,1-5.457,4.776l-10.585-1.022a5.019,5.019,0,0,1-4.6-5.457A2.752,2.752,0,0,1,208.084,279.388Z"/><path class="p" d="M212.859,276.818l4.279-.514-1.022-9.4,1.53-3.921,1.028,9.055s.681,5.116,0,5.8c-.855,1.207-3.24,1.207-4.949,1.207l-5.128-.526A4.892,4.892,0,0,1,212.859,276.818Z"/><polygon class="q" points="204.938 249.163 199.14 249.163 199.14 252.062 200.503 253.258 200.335 278.008 202.039 285.013 203.742 277.84 203.742 253.258 204.938 252.062 204.938 249.163"/><path class="r" d="M193,284.5l-10.418.849a5,5,0,0,1-5.457-4.6h0a7.78,7.78,0,0,0-.167,1.877,5.136,5.136,0,0,0,5.457,4.776L193,286.381a5.019,5.019,0,0,0,4.6-5.457v-.173A5.12,5.12,0,0,1,193,284.5Z"/><path class="r" d="M212.178,284.5l10.418.849a5,5,0,0,0,5.457-4.6h0a7.775,7.775,0,0,1,.168,1.877,5.136,5.136,0,0,1-5.457,4.776l-10.585-1.022a5.019,5.019,0,0,1-4.6-5.457v-.173A5.12,5.12,0,0,0,212.178,284.5Z"/><path class="s" d="M220.507,251.695l-35.183,3.32a1.851,1.851,0,0,0-1.656,2.024l2.032,20.677c.07.953,1.066,1.416,2.138,1.327,35.041-3.415,34.927-3.085,34.927-3.085a1.841,1.841,0,0,0,1.681-1.9l-2.033-20.681A1.717,1.717,0,0,0,220.507,251.695Z"/><path class="t" d="M185.653,277.482l38.746-3.66-2.373,2.245s-30.544,3.019-33.764,3.287C185.489,279.623,185.653,277.482,185.653,277.482Z"/><polygon class="u" points="202.54 265.543 203.958 265.382 203.819 264.078 202.4 264.239 202.54 265.543"/><rect class="u" x="204.012" y="263.971" width="1.43" height="1.43" transform="translate(-28.712 24.941) rotate(-6.516)"/><polygon class="u" points="202.721 267.081 204.139 266.919 204.004 265.614 202.562 265.658 202.721 267.081"/><polygon class="u" points="204.257 266.896 205.699 266.852 205.541 265.433 204.118 265.592 204.257 266.896"/><path class="u" d="M222.767,274.145l-1.915-20.7a1.856,1.856,0,0,0-2.025-1.664l1.68-.082a1.717,1.717,0,0,1,1.905,1.68l2.033,20.681a1.841,1.841,0,0,1-1.681,1.9l-1.655.208A1.784,1.784,0,0,0,222.767,274.145Z"/><path class="v" d="M208.518,278.349a1.559,1.559,0,0,0-1.022-1.022c0-.341.168-.681,0-1.022a1.574,1.574,0,0,0-1.877-1.2l-2.217.514-3.748.341,2.9-2.731s1.19-2.552-.855-3.24c-4.943,4.949-5.284,3.927-6.82,5.8a7.238,7.238,0,0,0-1.022,5.642h0l1.022,4.435,7.674.167,3.407-.681a1.568,1.568,0,0,0,1.2-1.871c-.173-.173-.173-.514-.341-.687a1.708,1.708,0,0,0,1.022-1.7,3.631,3.631,0,0,0-.514-.849h0A1.582,1.582,0,0,0,208.518,278.349Z"/></g><path class="w" d="M220.807,232.6a3.6,3.6,0,0,1-3.58,3.6,3.729,3.729,0,0,1-3.58-3.6,3.5,3.5,0,0,1,3.58-3.58A3.4,3.4,0,0,1,220.807,232.6Z"/><path class="w" d="M183.265,232.6a3.668,3.668,0,0,0,7.334,0,3.64,3.64,0,0,0-3.748-3.58A3.5,3.5,0,0,0,183.265,232.6Z"/><path class="v" d="M217.226,222.2a1.938,1.938,0,0,0-1.871-2.062H188.722a1.938,1.938,0,0,0-1.871,2.062v16.556a3.629,3.629,0,0,0,1.363,2.893h0c.341.346,8.541,5.983,8.541,5.983a3.749,3.749,0,0,0,2.552,1.536h5.457a3.425,3.425,0,0,0,2.558-1.536s8.373-5.809,8.714-5.983h0a4.534,4.534,0,0,0,1.19-3.066Z"/><path d="M197.436,234.657a2.193,2.193,0,0,1,1.022.168,1.468,1.468,0,0,0,.508-1.022,1.391,1.391,0,0,0-1.53-1.374,1.349,1.349,0,0,0-1.369,1.374,1.477,1.477,0,0,0,.514,1.022A1.307,1.307,0,0,1,197.436,234.657Z"/><path d="M206.641,234.657a2.193,2.193,0,0,1,1.022.168A2.383,2.383,0,0,0,208,233.8a1.254,1.254,0,0,0-1.363-1.374,1.345,1.345,0,0,0-1.363,1.374,2.383,2.383,0,0,0,.341,1.022A2.193,2.193,0,0,1,206.641,234.657Z"/><path class="x" d="M198.967,230.378H194.2a1.2,1.2,0,1,1,0-2.385h4.77a1.192,1.192,0,1,1,0,2.385Z"/><path class="x" d="M210.054,230.378h-4.949a1.192,1.192,0,0,1,0-2.385h4.949a1.192,1.192,0,0,1,0,2.385Z"/><path class="y" d="M215.863,239.433c-.508,1.19-8.541,8.194-8.541,8.194s8.373-5.809,8.714-5.983h0a4.534,4.534,0,0,0,1.19-3.066v-7l-1.53.341S216.545,237.724,215.863,239.433Z"/><path class="w" d="M202.379,237.383v-6.491h0c.681,0,1.2.681,1.363,1.363l.514,5.128Z"/><path class="c" d="M198.459,240.455c-.341,0-.341,0-.173.167,0,0,.855,1.369,3.754,1.369s3.921-1.369,3.921-1.369c.173-.167,0-.167-.168-.167Z"/><path class="z" d="M216.718,229.7a3.972,3.972,0,0,1,3.407,5.128,3.619,3.619,0,1,0-6.138-3.765A4.22,4.22,0,0,1,216.718,229.7Z"/><path class="z" d="M187.36,229.7a3.755,3.755,0,0,0-3.58,3.765,4.042,4.042,0,0,0,.341,1.363,3.615,3.615,0,0,1-.855-2.229,3.5,3.5,0,0,1,3.586-3.58C188.382,229.015,188.555,229.7,187.36,229.7Z"/><path class="z" d="M188.382,239.433c.514,1.19,8.373,8.194,8.373,8.194s-8.373-5.809-8.541-5.983h-.173a4.534,4.534,0,0,1-1.19-3.066v-7l1.53.341S187.533,237.724,188.382,239.433Z"/><path class="z" d="M189.063,225.943c1.028-2.893,5.3-4.106,5.3-4.106l-5.3-1.871Z"/><path class="x" d="M217.226,221.67c-.168-5.971-4.943-11.266-10.753-11.266H183.779a11.874,11.874,0,0,0,3.072,7.854v12.976h0a1.164,1.164,0,0,0,1.19,1.2,1.14,1.14,0,0,0,1.022-1.2v-11.1a10.968,10.968,0,0,0,5.642,1.7h20.477v9.4h0c0,.681.341,1.2,1.022,1.2a1.14,1.14,0,0,0,1.022-1.2v-9.4h0Z"/><g class="aa"><circle class="k" cx="232.871" cy="61.685" r="38.453"/><path class="c" d="M249.924,63.712H214.148V93.467l13.286,7.8c3.646,2.057,7.5,0,11.685,0,10.567,0,10.806-3.452,10.806-3.452Z"/><path class="ab" d="M255.6,65.859l-1.609-11.424a9.289,9.289,0,0,0-9.217-7.9H221.23a9.268,9.268,0,0,0-9.073,7.9l-1.609,11.424Z"/><path class="c" d="M258.228,75.161l-2.378-20.713a9.967,9.967,0,0,0-9.979-8.624H220.278a9.964,9.964,0,0,0-9.979,8.624l-1.934,20.713Z"/><path class="ac" d="M241.338,38.669H224.881v7.579a8.193,8.193,0,0,0,8.087,8.162h.149a8.221,8.221,0,0,0,8.221-8.162Z"/><path class="ad" d="M236.891,45.284l-1.995.623a1.964,1.964,0,0,1-2.145-.457v1.075c.919,3.065,3.678,4.753,5.828,5.828a8.6,8.6,0,0,0,2.758-6.29v-2.93h0A14.893,14.893,0,0,1,236.891,45.284Z"/><path class="ae" d="M257.8,46.739l-.294.294h0c-.149.149-.149.149-.149.294,0-.144,0-.144.149-.294h0Z"/><path class="m" d="M257.8,46.739h0l-.294.294h0c-.149.149-.149.149-.149.294a.5.5,0,0,0,.149.294l1.32,1.031.443-.737Z"/><path class="c" d="M211.736,75.708l7.071-14.287,1.031,3.1c1.763-.453,1.669-1.6,1.669-1.6-1.618-18.246-1.525-17.1-1.525-17.1H219.1A13.652,13.652,0,0,0,207.473,54.5c-2.649,7.216-6.031,15.318-7.216,20.916a6.526,6.526,0,0,0,0,2.943Z"/></g><path class="af" d="M231.013,5.039h-.294a15,15,0,0,0-13.969,16.05l.588,8.984,30.313-2.057-.6-8.984A15.008,15.008,0,0,0,231.013,5.039Z"/><path class="ac" d="M246.76,31.57c.732,6.041-3.531,11.628-9.118,13.685l-2.794,1.484-5.309-.881A13.2,13.2,0,0,1,219.4,33.482l-.588-10.015a6.027,6.027,0,0,1,5.294-6.479l15.891-1.031a6,6,0,0,1,6.031,5.747Z"/><path class="ac" d="M248.533,27.895a2.835,2.835,0,0,0-3.1-2.659,3.012,3.012,0,0,0-2.649,2.953,2.833,2.833,0,0,0,3.087,2.644A3.013,3.013,0,0,0,248.533,27.895Z"/><path class="ad" d="M246.76,31.57l-.737-8.984a4.269,4.269,0,0,0-4.118-2.35l-4.263.294a4.272,4.272,0,0,0-3.969,4.557h0a7.1,7.1,0,0,0,.588,2.515l1.469,2.794a.741.741,0,0,1-.588,1.118h-1.031l-2.659.715h-.294l.294-.365a3.193,3.193,0,0,0,1.484.588,9.1,9.1,0,0,1,3.825,9.865,2.163,2.163,0,0,0-1.912-.588c-1.325,0-2.206.732-2.206,1.613a3.631,3.631,0,0,1,2.206-.732,3.3,3.3,0,0,1,1.763.144,23.642,23.642,0,0,1-1.325,3.834l3.386-1.335A12.679,12.679,0,0,0,246.76,31.57Z"/><path class="ac" d="M222.045,29.658a2.877,2.877,0,1,0-5.737.438,3.042,3.042,0,0,0,3.088,2.649A2.835,2.835,0,0,0,222.045,29.658Z"/><path class="af" d="M246.9,31.47l-.588-7.8a12.88,12.88,0,0,1-6.469,11.922,6.466,6.466,0,0,0-5.881-2.644h-.149a7.08,7.08,0,0,0-5.6,3.391c-4.412-1.778-8.675-5.747-9.268-10.612l.443,7.515c.149,13.107,15.428,13.57,15.428,13.57a37.21,37.21,0,0,0,4.785-1.878C244.841,42.917,247.492,37.366,246.9,31.47Z"/><path class="c" d="M229.982,37.461a4.305,4.305,0,0,0,4.422,3.088,4.093,4.093,0,0,0,3.825-3.675Z"/><path d="M240.729,25.236a1.291,1.291,0,0,0-1.325-1.18,1.427,1.427,0,0,0-1.325,1.325,1.316,1.316,0,0,0,1.474,1.175A1.2,1.2,0,0,0,240.729,25.236Z"/><path d="M229.539,25.968a1.252,1.252,0,0,0-2.5.149,1.123,1.123,0,0,0,1.325,1.175A1.2,1.2,0,0,0,229.539,25.968Z"/><path class="ag" d="M246.317,77.948a.911.911,0,0,1,.149,1.175l-23.54,30.918a.765.765,0,0,1-1.18.147L199.814,93.416a.769.769,0,0,1-.149-1.18L223.22,61.455a.767.767,0,0,1,1.175-.144Z"/><polygon class="ah" points="243.817 78.979 222.045 107.542 202.18 92.385 223.952 63.81 243.817 78.979"/><polygon class="ai" points="223.952 63.81 223.952 63.81 222.045 107.542 243.817 78.979 223.952 63.81"/><polygon class="aj" points="220.864 85.02 214.385 80.154 214.824 79.716 221.158 84.576 220.864 85.02"/><polygon class="c" points="230.57 92.529 220.864 85.02 221.158 84.576 231.013 92.091 230.57 92.529"/><polygon class="c" points="229.101 94.442 212.911 82.216 213.355 81.623 229.395 94.004 229.101 94.442"/><polygon class="c" points="227.483 96.503 211.442 84.138 211.736 83.695 227.926 96.06 227.483 96.503"/><polygon class="c" points="226.014 98.411 209.973 86.195 210.267 85.607 226.452 97.973 226.014 98.411"/><polygon class="ak" points="226.014 98.411 218.808 92.973 219.101 92.529 226.452 97.973 226.014 98.411"/><polygon class="c" points="223.07 102.395 206.886 90.164 207.179 89.576 223.364 101.957 223.07 102.395"/><polygon class="b" points="237.42 84.18 221.235 71.949 221.529 71.361 237.714 83.741 237.42 84.18"/><polygon class="b" points="235.461 86.35 219.276 74.12 219.57 73.532 235.755 85.912 235.461 86.35"/><polygon class="b" points="233.714 88.892 217.529 76.661 217.823 76.074 234.007 88.454 233.714 88.892"/><polygon class="b" points="215.705 96.942 206.886 90.164 207.179 89.576 216.158 96.354 215.705 96.942"/><polygon class="c" points="240.286 80.448 230.132 72.645 230.57 72.057 240.729 79.86 240.286 80.448"/><polygon class="b" points="226.014 69.557 223.952 67.939 224.395 67.351 226.452 68.969 226.014 69.557"/><polygon class="b" points="229.101 71.908 227.039 70.289 227.483 69.701 229.539 71.32 229.101 71.908"/><path class="ac" d="M236.156,95.163,234.1,94.137l-2.953-2.072,3.835-.294s2.35-1.175,1.175-2.943c-6.628.737-6.335-.144-8.541.294-.294.149-.443.149-.588.294v-.144l-15.159-13.4H200.39c-.149.149-.149.149-.149.294a8.835,8.835,0,0,0,3.1,7.515L221.878,95.9l5.294,5.6,2.943,1.469a1.51,1.51,0,0,0,2.072-.588,1.891,1.891,0,0,0,.145-.881,1.356,1.356,0,0,0,1.768-.6,1.892,1.892,0,0,0,.144-.881h0a1.694,1.694,0,0,0,2.062-.737,1.352,1.352,0,0,0-.149-1.469,1.471,1.471,0,0,0,.588-.737A1.3,1.3,0,0,0,236.156,95.163Z"/><path class="ad" d="M223.07,94.137c-6.618-4.427-14.128-9.427-16.479-11.19a7.6,7.6,0,0,1-3.237-7.071h-3.1c-.149.149-.149.149-.149.294a8.835,8.835,0,0,0,3.1,7.515L221.746,95.9l5.294,5.6,2.943,1.469a1.51,1.51,0,0,0,2.072-.588,1.892,1.892,0,0,0,.144-.881Z"/><path class="ac" d="M268.3,48.908l-1.165,2.074L264.95,53.8V49.942s-1.022-2.37-2.927-1.336c.291,6.688-.582,6.241-.148,8.465a5.775,5.775,0,0,0,.879,1.632h-.148L249.924,74.589v12.02h1.752a7.953,7.953,0,0,0,7.138-3.705l10.8-19.606,4.374-4.89,1.747-2.967a1.387,1.387,0,0,0-.583-1.938,1.1,1.1,0,0,0-.731-.3,1.445,1.445,0,0,0-.582-1.782,2.079,2.079,0,0,0-.874-.3h0a1.509,1.509,0,0,0-.582-2.074,1.321,1.321,0,0,0-1.456.151,1.483,1.483,0,0,0-.582-.743A1.55,1.55,0,0,0,268.3,48.908Z"/><path class="ad" d="M272.385,55.664c-1.022-.616-2.187-1.369-3.352-1.969h-3.5l-.582.753V50.54s-1.022-2.4-2.927-1.353c.291,6.777-.582,6.325-.148,8.579a5.877,5.877,0,0,0,.879,1.654h-.148L259.4,63.474l-9.473,12.044v3.307l12.987-16.4c1.891-.748,4.225-.748,6.264-1.2a7.408,7.408,0,0,0,3.939-1.8,8.578,8.578,0,0,0,.726-1.2c.148-.3.439-.753.582-1.053C273.7,56.712,272.967,56.112,272.385,55.664Z"/><path class="al" d="M279.882,63.661l-.588-.438.294-.443.588.443c0,.144.144.294,0,.294A.464.464,0,0,1,279.882,63.661Z"/><polygon class="am" points="259.414 49.09 277.073 62.779 277.516 62.192 260.007 48.357 259.414 49.09"/><polygon class="aj" points="261.032 47.033 260.007 48.357 259.414 49.09 277.073 62.779 277.516 62.192 278.691 60.723 261.032 47.033"/><polygon class="an" points="258.976 48.357 259.563 48.945 260.888 47.182 260.3 46.739 258.976 48.357"/><g class="ao"><rect class="ap" x="259.226" y="47.97" width="0.715" height="1.431"/></g><polygon class="aj" points="280.026 62.929 278.691 60.723 277.073 62.779 279.438 63.516 280.026 62.929"/><path class="aj" d="M259.12,45.549a.276.276,0,0,0-.438,0l-.588.9a.312.312,0,0,0-.294.294c-.149,0-.149.149-.294.294h0c-.149.294-.149.443,0,.588l1.32,1.031.443-.737,1.175-1.469Z"/><polygon class="m" points="260.007 48.357 259.563 48.945 259.414 49.09 277.073 62.779 277.516 62.192 260.007 48.357"/><path class="aq" d="M260.007,48.357l-.443.588Z"/><path class="m" d="M277.516,62.192l-.443.588Z"/><polygon class="aj" points="275.31 58.223 272.81 56.161 273.104 55.867 275.604 57.929 275.31 58.223"/><path class="ar" d="M275.454,58.073l-.144.149Z"/><polygon class="m" points="273.183 56.017 273.039 56.161 275.539 58.223 275.683 58.073 275.683 57.929 273.183 56.017"/><path class="ac" d="M268.253,50.27l-1.474,2.35a1.426,1.426,0,0,0,.149,2.062,1.29,1.29,0,0,0,.881.453A2.1,2.1,0,0,0,268.4,56.6a1.6,1.6,0,0,0,2.057-.294h0a3.31,3.31,0,0,0,.443.732,1.57,1.57,0,0,0,2.057-.144.817.817,0,0,0,.443.737,1.29,1.29,0,0,0,1.912-.3l.438-.732Z"/><g class="as"><circle class="l" cx="399.231" cy="198.947" r="38.453"/><path class="aj" d="M381.343,208.249c0,20.311-2.147,24.328-2.147,24.328,9.3,9.741,19.319,7.871,19.319,7.871,2.664,1.5,7.223-1.62,10.017-2.862,6.44-2.862,7.155-5.724,7.155-5.724V208.249Z"/><path class="at" d="M425.2,222.39l-3.337-23.328a10.206,10.206,0,0,0-10.206-8.7h-26.2a10.258,10.258,0,0,0-10.1,8.7c-1.168,7.04-4.03,29.221-4.03,29.221,7.629,4.409,7.155,5.009,7.155,5.009,45.006-4.195,45.966-10.044,45.966-10.044A.762.762,0,0,0,425.2,222.39Z"/><path class="aj" d="M424.166,214.689,421.9,199.076a10.222,10.222,0,0,0-10.222-8.715H385.433a10.2,10.2,0,0,0-10.113,8.715l-2.257,15.613Z"/><path class="at" d="M406.387,188.294v-7.951H391.361v7.951a2.059,2.059,0,0,1-2.052,2.067h-1.522a11.137,11.137,0,1,0,22.274,0h-1.621A2.059,2.059,0,0,1,406.387,188.294Z"/><path class="au" d="M406.387,181.881v-2.254H391.361v8.811C401.634,188.653,406.387,181.881,406.387,181.881Z"/><rect class="c" x="381.343" y="212.542" width="35.061" height="10.733"/><path class="m" d="M413.07,190.361h-2.99a11.018,11.018,0,0,1-6.528,9.964l2.138,12.218H416.4v2.147h8.071l-2.268-15.613A10.5,10.5,0,0,0,413.07,190.361Z"/><path class="av" d="M409.726,190.361h-.109a11.072,11.072,0,0,1-6.437,9.992h0A11.049,11.049,0,0,0,409.726,190.361Z"/><polygon class="aw" points="416.404 212.542 405.134 212.542 405.584 214.689 416.404 214.689 416.404 212.542"/></g><path class="s" d="M426.928,201.809H381.556a2.366,2.366,0,0,0-2.359,2.359v26.262c0,1.3,4.293,2.862,4.293,2.862h43.438a2.306,2.306,0,0,0,2.356-2.351V204.161A2.306,2.306,0,0,0,426.928,201.809Z"/><path class="t" d="M382.059,233.293h45.794v-2.862H379.2A2.8,2.8,0,0,0,382.059,233.293Z"/><rect class="u" x="402.809" y="215.404" width="2.147" height="2.147"/><rect class="u" x="404.956" y="215.404" width="1.431" height="2.147"/><rect class="u" x="402.809" y="217.551" width="2.147" height="2.147"/><rect class="u" x="404.956" y="217.551" width="1.431" height="2.147"/><path class="at" d="M408.533,234.008v-2.455a1.689,1.689,0,0,0-1.49-1.287,1.441,1.441,0,0,0-1.372,1.287v2.455Z"/><path class="at" d="M411.4,234.008V230.59c-.488-.643-1.026-1.29-1.779-1.29a1.048,1.048,0,0,0-1.084,1.29v3.418Z"/><path class="at" d="M416.4,234.008V230.7a1.849,1.849,0,0,0-1.626-1.287,1.144,1.144,0,0,0-1.236,1.181v3.418Z"/><path class="at" d="M413.542,234.008v-4.062a1.314,1.314,0,0,0-1.337-1.29c-.654-.105-1.3.538-1.525,1.181v4.171Z"/><path class="at" d="M405.671,234.008c.109,1.512.359,2.113,1.431,2.862,1.719,1.29,4.448,1.046,6.28-.026l5.154-3.551Z"/><path class="u" d="M427.853,230.941V204.161a2.442,2.442,0,0,0-2.483-2.351h2.147A2.37,2.37,0,0,1,430,204.161v26.781a2.37,2.37,0,0,1-2.483,2.351h-2.147A2.442,2.442,0,0,0,427.853,230.941Z"/><path class="ax" d="M417.141,167.614a17.341,17.341,0,1,1-16-18.592A17.331,17.331,0,0,1,417.141,167.614Z"/><path class="at" d="M394.369,186.2h0c-6.125-.538-10.635-7.1-10.206-13.329l1.076-14.721,24.164,1.836-1.072,14.721C407.792,182.553,400.5,186.631,394.369,186.2Z"/><path class="au" d="M393.188,174.709a.752.752,0,0,1-.749-.967.966.966,0,0,1,.32-.654,14.96,14.96,0,0,0,1.719-4.293l.105-.749a2.861,2.861,0,0,0-2.577-3.337l-7.2-.538-.109,2.148-.32,4.3-.218,2.254a13.281,13.281,0,0,0,6.019,11.933,7.024,7.024,0,0,0,.861.429l2.682-7.091a4.014,4.014,0,0,1,1.716-1.825l2.363-1.29Z"/><path class="ay" d="M399.2,178.892c-1.181,2.155-3.115,3.551-5.154,3.446a5.591,5.591,0,0,1-4.507-4.195Z"/><path class="c" d="M399.2,178.892a4.669,4.669,0,0,1-5.045,2.479c-2.148-.109-3.864-.858-4.616-3.228Z"/><path d="M400.167,170.085a1.3,1.3,0,0,1,2.584.214,1.12,1.12,0,0,1-.538.963l-1.716-.105A1.263,1.263,0,0,1,400.167,170.085Z"/><path d="M387.063,169.118a1.35,1.35,0,0,1,2.69.214,1.289,1.289,0,0,1-.534.967l-1.726-.214A1.045,1.045,0,0,1,387.063,169.118Z"/><path class="at" d="M412.739,165.891a4.2,4.2,0,0,1-.643,7.422Z"/><path class="az" d="M414.35,172.982a1.25,1.25,0,0,1-1.4,1.189,1.328,1.328,0,0,1-.858-.429l.109-1.941a1.727,1.727,0,0,1,.963-.324,1.307,1.307,0,0,1,.858.433A1.18,1.18,0,0,1,414.35,172.982Z"/><path class="ax" d="M390.72,156.866s4.293,10.214,18.149,11.072l1.5-9.57Z"/><path class="ax" d="M392.759,157.08l-6.234-.538-1.5,1.61-.324,1.4-.538,6.557C393.3,163.634,392.759,157.08,392.759,157.08Z"/><path class="ax" d="M419.823,154.183a7.915,7.915,0,1,1-7.3-8.5A7.917,7.917,0,0,1,419.823,154.183Z"/><g class="ba"><circle class="i" cx="50.768" cy="169.61" r="38.453"/><path class="bb" d="M68.657,178.912c0,20.311,2.147,24.328,2.147,24.328-18.783,14.549-44.78-.6-44.78-.6,0-20.74,8.288-23.732,8.288-23.732Z"/><path class="bc" d="M24.8,193.054l3.337-23.328a10.206,10.206,0,0,1,10.206-8.7h26.2a10.258,10.258,0,0,1,10.1,8.7c1.168,7.04,4.03,29.221,4.03,29.221-7.629,4.409-7.155,5.009-7.155,5.009-45.006-4.195-45.966-10.044-45.966-10.044A.762.762,0,0,1,24.8,193.054Z"/><path class="bb" d="M25.834,185.352,28.1,169.739a10.222,10.222,0,0,1,10.222-8.715H64.567a10.2,10.2,0,0,1,10.113,8.715l2.257,15.613Z"/><path class="bd" d="M43.613,158.957v-7.951H58.639v7.951a2.059,2.059,0,0,0,2.052,2.067h1.522a11.137,11.137,0,1,1-22.274,0h1.621A2.059,2.059,0,0,0,43.613,158.957Z"/><path class="bc" d="M43.613,152.545v-2.254H58.639V159.1C48.366,159.316,43.613,152.545,43.613,152.545Z"/><rect class="c" x="33.596" y="183.206" width="35.061" height="10.733"/><path class="bb" d="M36.93,161.024h2.99a12.13,12.13,0,0,0,6.972,10.435c-2.138,12.218-2.583,11.747-2.583,11.747H33.6v2.147H25.525l2.268-15.613A10.5,10.5,0,0,1,36.93,161.024Z"/><polygon class="aw" points="33.596 183.206 44.866 183.206 44.416 185.352 33.596 185.352 33.596 183.206"/></g><path class="s" d="M27.02,169.73l44.99,5.88a2.366,2.366,0,0,1,2.033,2.645L70.64,204.3c-.168,1.288-4.628,2.282-4.628,2.282L22.94,200.948a2.306,2.306,0,0,1-2.031-2.637l3.47-26.555A2.306,2.306,0,0,1,27.02,169.73Z"/><path class="t" d="M67.431,206.763l-45.408-5.934.371-2.838L70.64,204.3A2.8,2.8,0,0,1,67.431,206.763Z"/><rect class="u" x="46.897" y="186.188" width="2.147" height="2.147" transform="matrix(0.13, -0.992, 0.992, 0.13, -143.929, 210.554)"/><rect class="u" x="45.123" y="186.314" width="2.147" height="1.431" transform="translate(-145.243 208.599) rotate(-82.554)"/><rect class="u" x="46.619" y="188.317" width="2.147" height="2.147" transform="translate(-146.281 212.139) rotate(-82.555)"/><rect class="u" x="44.845" y="188.443" width="2.147" height="1.431" transform="translate(-147.596 210.175) rotate(-82.554)"/><path class="bc" d="M41.087,204.041l.318-2.434a1.689,1.689,0,0,1,1.644-1.083,1.441,1.441,0,0,1,1.194,1.454l-.318,2.434Z"/><path class="bc" d="M38.249,203.671l.443-3.389c.567-.575,1.185-1.147,1.931-1.049a1.048,1.048,0,0,1,.907,1.42l-.443,3.39Z"/><path class="bc" d="M33.282,203.021l.429-3.285a1.849,1.849,0,0,1,1.779-1.065A1.144,1.144,0,0,1,36.563,200l-.443,3.39Z"/><path class="bc" d="M36.12,203.392l.526-4.027a1.314,1.314,0,0,1,1.493-1.106c.662-.02,1.217.7,1.359,1.369l-.541,4.136Z"/><path class="bc" d="M43.925,204.412c-.3,1.485-.63,2.049-1.79,2.653-1.872,1.057-4.546.46-6.224-.84l-4.65-4.189Z"/><path class="u" d="M22.328,198.5l3.47-26.555a2.441,2.441,0,0,1,2.767-2.01l-2.128-.278a2.37,2.37,0,0,0-2.767,2.01L20.2,198.219a2.37,2.37,0,0,0,2.158,2.653l2.128.278A2.441,2.441,0,0,1,22.328,198.5Z"/><path class="be" d="M67.992,138.351a16.77,16.77,0,0,0-15.014-18.112A16.518,16.518,0,0,0,35.03,135.253l-.886,19.3a14.162,14.162,0,0,0,8.974-3.835l1.763-3.237,12.365-4.128,1.469,3.4c1.618,6.613,8.1,8.391,8.1,8.391Z"/><path class="bd" d="M52.539,156.313h0c5.881.593,11.175-5.01,11.618-10.891l1.335-13.994L42.53,129.223,41.2,143.351C40.468,150.716,46.643,155.726,52.539,156.313Z"/><path class="bc" d="M55.534,145.716c.443,0,.886-.294.737-.747a1.352,1.352,0,0,0-.144-.737,13.724,13.724,0,0,1-.886-4.263v-.737a2.627,2.627,0,0,1,2.943-2.644l6.912.588-.294,2.057-.294,4.118-.294,2.072a12.617,12.617,0,0,1-7.5,10.3c-.294.149-.588.149-.886.294L54.359,148.8a3.259,3.259,0,0,0-1.175-1.912l-2.206-1.619Z"/><path class="ay" d="M49.143,148.659c.747,2.351,2.221,3.82,4.278,4.113a5.286,5.286,0,0,0,4.85-3.232Z"/><path class="c" d="M49.143,148.659a4.343,4.343,0,0,0,4.278,3.232c2.057.149,3.825-.294,4.85-2.35Z"/><path d="M49.6,140.263a1.106,1.106,0,0,0-1.041-1.325,1.321,1.321,0,0,0-1.469,1.031A2.1,2.1,0,0,0,47.38,141l1.763.144A.891.891,0,0,0,49.6,140.263Z"/><path d="M62.1,141.438a1.428,1.428,0,0,0-1.175-1.469,1.3,1.3,0,0,0-1.325,1.175.915.915,0,0,0,.294,1.031l1.619.144C61.8,142.175,61.951,141.732,62.1,141.438Z"/><path class="bd" d="M38.411,134.223a4.146,4.146,0,0,0-2.355,3.391,4.2,4.2,0,0,0,1.768,3.825Z"/><path class="ay" d="M35.762,140.706a1.286,1.286,0,0,0,1.175,1.32,1.084,1.084,0,0,0,.886-.294l.144-1.763a1.046,1.046,0,0,0-.881-.443,1.079,1.079,0,0,0-.881.294A1.26,1.26,0,0,0,35.762,140.706Z"/><polygon class="be" points="41.349 135.692 55.333 136.588 58.57 133.635 58.421 136.732 65.786 137.176 65.492 130.104 41.205 128.047 41.349 135.692"/></svg>