<svg xmlns="http://www.w3.org/2000/svg" viewBox="0 0 450 300"><title>swimlane-real-time-sharing</title><polygon points="450 280.405 269.44 280.405 232.287 19.595 450 19.595 450 280.405" fill="#dad0ff"/><rect x="323.682" y="128.08" width="28.979" height="27.493" fill="#a996f0"/><rect x="354.147" y="42.63" width="28.979" height="27.493" fill="#a996f0"/><rect x="354.147" y="71.609" width="28.979" height="26.75" fill="#a996f0"/><rect x="323.682" y="71.609" width="28.979" height="26.75" fill="#a996f0"/><rect x="323.682" y="99.844" width="28.979" height="26.75" fill="#a996f0"/><rect x="323.682" y="42.63" width="28.979" height="27.493" fill="#a996f0"/><rect x="354.147" y="99.844" width="28.979" height="26.75" fill="#a996f0"/><rect x="384.612" y="99.844" width="28.979" height="26.75" fill="#a996f0"/><rect x="384.612" y="128.08" width="28.979" height="27.493" fill="#a996f0"/><rect x="384.612" y="42.63" width="28.979" height="27.493" fill="#a996f0"/><rect x="384.612" y="71.609" width="28.979" height="26.75" fill="#a996f0"/><rect x="354.147" y="128.08" width="28.979" height="27.493" fill="#a996f0"/><path d="M414.895,264.8H67.929a3.04,3.04,0,0,1-2.958-2.972,2.973,2.973,0,0,1,2.958-2.972H414.895a2.912,2.912,0,0,1,2.958,2.972,2.973,2.973,0,0,1-2.958,2.972Z" fill="#a996f0"/><path d="M362.33,261.085H398.1a5.437,5.437,0,0,0,5.28-4.778l2.588-24.625a4.222,4.222,0,0,0-4.276-4.778h-35.77a5.437,5.437,0,0,0-5.28,4.778l-2.588,24.625A4.222,4.222,0,0,0,362.33,261.085Z" fill="#e24f01"/><path d="M364.559,261.085h35.77a5.437,5.437,0,0,0,5.28-4.778l2.588-24.625a4.222,4.222,0,0,0-4.276-4.778h-35.77a5.437,5.437,0,0,0-5.28,4.778l-2.588,24.625A4.222,4.222,0,0,0,364.559,261.085Z" fill="#9c2801"/><path d="M392.759,226.905c.013.246.027.492.027.743,0,5.736-3.334,10.4-7.43,10.4s-7.43-4.667-7.43-10.4c0-.251.014-.5.027-.743h-1.485c-.012.247-.028.492-.028.743,0,6.555,4,11.889,8.917,11.889s8.917-5.333,8.917-11.889c0-.251-.017-.5-.028-.743Z" fill="#ec6401"/><polygon points="308.321 209.815 367.014 210.167 373.852 261.085 371.502 261.085 365.016 212.787 341.224 212.53 347.744 261.085 345.254 261.085 338.768 212.787 310.188 212.479 300.831 261.085 298.45 261.085 308.321 209.815" fill="#fff"/><path d="M347.979,146.446c6.051-.232,16.262,0,20.478,0s6.275.353,6.181,4.232c-.238,9.884-1.879,44.438-2.392,52.374-.272,4.216-3.149,7.406-9.774,7.506H303.324a7.882,7.882,0,0,1,7.493-6.687h19.4c0,.416,9.384-42.609,10.654-48.608C342.211,148.915,344.007,146.6,347.979,146.446Z" fill="#220c3d"/><path d="M363.211,146c-13.871,4.283-23.182-14.151-23.182-14.151V119.928l17.861-.559.19,1.3C358.08,134.824,358.08,141.154,363.211,146Z" fill="#8e562e" fill-rule="evenodd"/><path d="M302.134,261.828v-8.174h-8.8a11.641,11.641,0,0,0-10.954,8.174Z" fill="#9c2801" fill-rule="evenodd"/><path d="M293.433,252.912c-5.033,0-7.205,2.378-9.566,5.944h12.516a6.607,6.607,0,0,0,6.491-5.944Z" fill="#ffa940" fill-rule="evenodd"/><path d="M319.224,193.468v-.743H306.936c-7.784.753-14.05,8.64-14.462,16.152h0v.751c.222,37.133.305,42.978.319,43.7a.088.088,0,0,0,.091.089c2.782-.016,8.586,0,9.326,0a.087.087,0,0,0,.085-.087c3.015-37.206,3.121-45.816,3.122-46.761a.091.091,0,0,1,.092-.093c8.282,0,21.748.186,21.748.186,8.129,0,14.558-5.254,14.612-13.271,0-.056-.046-.1-.1.075Z" fill="#e24f01" fill-rule="evenodd"/><path d="M333.342,194.211v-.743h-10.79c-7.784.673-14.05,8.658-14.474,16.262h0v43.822c4.531.034,10.024.034,10.024.034,2.44-31.042,2.866-41.99,2.928-45.485a1.487,1.487,0,0,1,1.5-1.467c4.907.043,20.174.177,20.334.177,8.164,0,14.619-4.685,14.619-12.6Z" fill="#e24f01" fill-rule="evenodd"/><path d="M318.481,261.828v-8.174h-8.7a11.735,11.735,0,0,0-11.054,8.174Z" fill="#9c2801" fill-rule="evenodd"/><path d="M308.924,252.912a12.939,12.939,0,0,0-11.015,5.944h14.074a6.761,6.761,0,0,0,6.731-5.944Z" fill="#ffa940" fill-rule="evenodd"/><path d="M350.432,142.17V131.052H339.658l-.186,10.96a1.4,1.4,0,0,1-1.3.929h-3.344v23.777h21.548V142.941H351.2A.773.773,0,0,1,350.432,142.17Z" fill="#d0b28d" fill-rule="evenodd"/><path d="M350.432,137.408v-7.1H339.383l-.191,11.24C348.527,141.549,350.432,137.408,350.432,137.408Z" fill="#b89e7c" fill-rule="evenodd"/><path d="M337.875,142.551c0,.188-.176.188-.176.39h-2.128v17.638c-.155.188.2.376.021.938h.176a1.393,1.393,0,0,0,.546-.187v-.376C335.767,154.945,337.875,142.551,337.875,142.551Z" fill="#b89e7c" fill-rule="evenodd"/><path d="M324.846,193.468s13.662,16.157,33.016,16.157V193.468Z" fill="#fff" fill-rule="evenodd"/><path d="M356.216,142.941h-4.972c-4.016,6.945-8.8,13.665-15.109,18.17-1.147-5.631-.574-11.976.574-18.17h-.956a13.111,13.111,0,0,0-12.814,12.914v8.634h2.229v29.722h32.694V164.489h10.4V155.1C368.074,148.723,362.719,142.941,356.216,142.941Z" fill="#fff" fill-rule="evenodd"/><path d="M325.911,163.964v29.5h14.05Z" fill="#f0ae00" fill-rule="evenodd"/><path d="M368.265,163.746h-10.4v6.281a1.238,1.238,0,0,1-.963,1.137c-4.019,1.362-20.786,6.231-20.786,6.231-14.063,0-14.66,7.791-14.66,7.791a80.059,80.059,0,0,0,15.556-2.3c10.111-.624,26.247-2.819,26.247-2.819a5.8,5.8,0,0,0,5.009-5.874Z" fill="#d0b28d" fill-rule="evenodd"/><polygon points="368.265 166.556 368.265 163.746 358.43 163.746 368.265 166.556" fill="#b89e7c" fill-rule="evenodd"/><ellipse cx="334.655" cy="124.989" rx="3.864" ry="3.512" fill="#d9c1a4"/><circle cx="331.845" cy="127.448" r="1.054" fill="#e81123"/><ellipse cx="355.027" cy="124.989" rx="3.864" ry="3.512" fill="#d9c1a4"/><circle cx="357.837" cy="127.448" r="1.054" fill="#e81123"/><path d="M356.081,115.433a13.928,13.928,0,0,0-10.981-5.01c-9.845,0-15.714,10.577-11.738,19.3a16.128,16.128,0,0,0,4.733,6.866,8.533,8.533,0,0,0,2.65,1.856c3.218,1.3,6.058.371,8.709-1.113a41.481,41.481,0,0,0,3.408-2.6,6.808,6.808,0,0,0,2.651-5.381Z" fill="#d0b28d" fill-rule="evenodd"/><path d="M335.182,119.525a22.364,22.364,0,0,1,3.337-7.883c-4.215,2.252-6.322,6.944-6.322,12.387,0,4.88,1.054,8.258,4.742,12.2C334.48,131.536,334.128,124.4,335.182,119.525Z" fill="#d9c1a4" fill-rule="evenodd"/><path d="M345.125,106.022c-7.384,0-13.442,6.5-13.631,14.778a8.528,8.528,0,0,0,4.354,1.182c6.058,0,11.17-4.335,13.063-10.443,1.325,3.941,2.84,8.275,7.573,10.246.568.394,1.136-1.379,1.7-1.182C357.809,112.524,352.7,106.022,345.125,106.022Z" fill="#8e562e" fill-rule="evenodd"/><path d="M342.258,129.566v-5.62c-.527,0-.878.527-1.054,1.054l-.351,4.566Z" fill="#d9c1a4" fill-rule="evenodd"/><path d="M340.626,129.566a2.369,2.369,0,0,0,2.107,1.4,2.2,2.2,0,0,0,2.107-1.4Z" fill="#b89e7c" fill-rule="evenodd"/><path d="M343.467,131.311a.8.8,0,0,0-.733.757c-.183-.378-.55-.757-.733-.757a8.3,8.3,0,0,0-3.482.757c.55,2.459,2.2,4.161,4.215,4.161s3.665-1.7,4.215-4.161A8.3,8.3,0,0,0,343.467,131.311Z" fill="#ee4d5a" fill-rule="evenodd"/><path d="M338.519,132.538a4.566,4.566,0,0,0,8.43,0Z" fill="#b89e7c" fill-rule="evenodd"/><path d="M338.519,132.538c.55,1.229,2.2,2.107,4.215,2.107s3.665-.878,4.215-2.107Z" fill="#fff" fill-rule="evenodd"/><circle cx="337.465" cy="123.935" r="1.054"/><circle cx="348.002" cy="123.935" r="1.054"/><path d="M336.97,151.858H299.607a.893.893,0,0,0-.958,1.151l4.6,28.571h39.471l-4.6-28.955A1.051,1.051,0,0,0,336.97,151.858Z" fill="#737373" fill-rule="evenodd"/><path d="M342.258,183.643c12.142,0,12.308.558,12.308.558a.37.37,0,0,0,.324-.36V182.76a.379.379,0,0,0-.324-.36c-4.211-.281-12.308-.918-12.308-.918Z" fill="#666" fill-rule="evenodd"/><path d="M342.258,183.809H303.833a.891.891,0,0,1-.956-.929v-1.3h39.381Z" fill="#394453" fill-rule="evenodd"/><path d="M214.214,186.038s13.315,8.917,20.282,8.917h137.83c6.959,0,9.124,2.01,10.052,6.959s7.315,59.172,7.315,59.172h3.093l-.2-75.048Z" fill="#d83b01"/><rect x="198.85" y="183.066" width="206.567" height="4.458" fill="#f57800"/><path d="M380.154,181.81c-.324.158-.476.234-.635-.23h-6.472c-.152.464-.3.388-.324.23v-.387c.019-.152.172-.311.324-.587h6.472a1.265,1.265,0,0,0,.635.587Z" fill="#c9ad74"/><path d="M382.692,179.23c1.029-.366,2.282-.846,2.567-1.011a.282.282,0,0,1,.163-.074,2.622,2.622,0,0,0,1.82-3.456,1.975,1.975,0,0,0-1.187-1.5,4.4,4.4,0,0,0-2.93.181v-.255a.5.5,0,0,0-.476-.454H370.132a.381.381,0,0,0-.381.381v4.726c0,.008,0,.016,0,.024s0,.033,0,.05c0,1.7,1.8,3.176,4.371,3.735h-8.174c0,.829,4.671,1.5,10.374,1.5,5.774,0,10.445-.675,10.445-1.5h-8.083A6.266,6.266,0,0,0,382.692,179.23Zm2.821-5.088a.847.847,0,0,1,.464.7c.381,1.628-.464,2.015-1.08,2.25-.153.076-.235.076-.387.152a14.757,14.757,0,0,1-1.386.61c0-.016,0-.031,0-.046s0-.012,0-.019v-3.249A3.1,3.1,0,0,1,385.514,174.142Z" fill="#8867c8"/><path d="M266.406,258.856l-248.509,0a2.973,2.973,0,0,0-2.958,2.971A3.039,3.039,0,0,0,17.9,264.8l249.314,0Z" fill="#b2b2b2"/><path d="M122.506,28.512c-25.034,0-45.515,20.425-45.515,46.245V142.2h90.652V74.757C167.642,48.937,147.54,28.512,122.506,28.512Z" fill="#f57800" fill-rule="evenodd"/><path d="M167.642,74.177a48.369,48.369,0,0,0-.906-9.352,10.41,10.41,0,0,0-6.253-1.97c-4.589,0-9.179,3.743-9.6,8.319a10.067,10.067,0,0,0-17.106,6.239A8.157,8.157,0,0,0,130.444,77a9.566,9.566,0,1,0,0,19.133h37.2Z" fill="#ffa940" fill-rule="evenodd"/><path d="M103.033,167.531c-1.892.426-4.16.807-6.165,1.113L94.342,183.68l11.985-.25Z" fill="#f6cba7"/><path d="M103.489,169.73l-.456-2.2c-1.892.426-4.16.807-6.165,1.113l-.569,3.389Z" fill="#ddb694"/><polygon points="195.135 254.312 195.135 247.802 184.848 249.812 182.437 257.206 195.135 254.312" fill="#8867c8"/><path d="M74.182,148.164c-5.828-.224-15.662,0-19.723,0s-6.043.34-5.953,4.076c.229,9.519,1.809,42.8,2.3,50.442.262,4.06,3.033,7.133,9.414,7.133h56.966a7.067,7.067,0,0,0-7.216-5.944H91.293s-9.038-41.438-10.261-47.215C79.737,150.541,78.007,148.311,74.182,148.164Z" fill="#220c3d"/><path d="M93.751,169.1a95.7,95.7,0,0,0,11.077-2.019c-1.353-7.126-3.693-18.776-4.03-20.186-1.9-7.936-10.2-2.913-9.239,2.132C92.117,151.961,93.029,161.417,93.751,169.1Z" fill="#ec6401"/><polygon points="121.491 209.815 54.919 210.162 47.163 260.342 49.865 260.342 57.215 212.787 84.176 212.534 76.787 260.342 79.609 260.342 86.959 212.787 119.347 212.483 129.951 260.342 132.687 260.342 121.491 209.815" fill="#c8c8c8"/><polygon points="110.452 251.912 111.112 245.55 120.962 248.556 122.569 256.027 110.452 251.912" fill="#bcbec0"/><path d="M110.274,251.338a51.919,51.919,0,0,0,6.273,1.524c1.885.2,2.749-4.226,6-2s2.9,3.363,10.51,7.362c2.635,1.385-.821,3.329-.821,3.329l-22.857-2.37Z" fill="#414042"/><polygon points="98.539 253.81 98.539 247.414 108.647 249.388 111.016 256.653 98.539 253.81" fill="#bcbec0"/><path d="M112.012,194.211h7.107c3.632,0,11.082,1.237,10.345,10.363-1.082,13.4-6.691,45.276-6.691,45.276l-12.451-1.914s3.98-37.774,2.717-38.879-9.871-2.211-9.871-2.211l1.5-12.635Z" fill="#505050"/><path d="M51.324,203.251c.684-7.83,4.336-41.923,5.643-51.675.513-3.828,2.907-4.176,7.695-4.176h7.128s-.478,42.064-.478,48.275c0,5.37,2.5,7.644,6.266,8.162a7.268,7.268,0,0,0,1.42.035s32.6.106,40.105.106,7.507,6.582,7.507,6.582H57.62C52.352,210.558,50.96,207.41,51.324,203.251Z" fill="#220c3d"/><path d="M79.529,138.37c-5.675-.4-8.578-6.466-8.578-6.466a30.193,30.193,0,0,1-2.375-11.348l.792-8.181,10.425-5.146,11.085,8.05.132,5.278A29.683,29.683,0,0,1,88.635,131.9s-3.167,6.73-9.106,6.466Z" fill="#f6cba7"/><path d="M69.2,120.954a1.26,1.26,0,0,0-1.224-.66s-1.224.132-.816,2.111l.272.924.272,1.056.408.924.272.66a5.3,5.3,0,0,1,.272,1.188.83.83,0,0,0,.68.924h.816a58.639,58.639,0,0,1,.136-6.6Z" fill="#f6cba7"/><path d="M58.342,142.281c3.631-.724,18.079-3.695,18.079-3.695l6.695.167c1.718.415,3.173.709,14.511,3.868a5.207,5.207,0,0,1,3.34,4.806c.132,2.9-5.419,46.041-5.419,46.041l-36.391-.5L59.1,164.186l-.776-16.546S54.711,143.005,58.342,142.281Z" fill="#d83b01"/><path d="M79.591,144.087c-3.494,0-6.316-1.806-6.316-4.74v-3.837H85.907v3.837c0,2.934-2.822,4.74-6.316,4.74Z" fill="#f6cba7"/><path d="M91.109,114.858v5.792H89.622V117.52c-4.947,2.771-11.941-5.964-17.483-2.533.4,5.674-2.111,6.405-2.111,6.405H68.945l-.128-6.535v-.267c.128-5.735,4.59-8.8,9.945-8.8h1.785c5.355,0,10.433,3.067,10.561,8.8Z" fill="#666"/><path d="M84.274,128.08c0,.4-.264.66-.792.66-.132,0-.132.264-.4.4a1.426,1.426,0,0,1-.924.4,1.2,1.2,0,0,1-.924-.4c-.264-.132-.4-.4-.528-.4a.623.623,0,0,1-.66-.66h4.223Z" fill="#c09f81"/><path d="M82.192,122.535v5.545H80.051s0-.135.264-.267a11.018,11.018,0,0,0,1.134-1.847v-2.507c-.343-.66.449-.924.713-.924Z" fill="#ddb694"/><path d="M85.907,137.178l-.134.134c-1.747,1.478-4.166,2.016-7.122,1.747a16.668,16.668,0,0,1-5.375-1.781v-1.847a10.922,10.922,0,0,0,5.375,2.284,9.1,9.1,0,0,0,7.257-2.15Z" fill="#ddb694"/><path d="M86.781,131.64a20.65,20.65,0,0,1-9.436,0,7.527,7.527,0,0,0,4.718,2.243A7.527,7.527,0,0,0,86.781,131.64Z" fill="#fff"/><path d="M59.158,192.484v4.569c0,2.363-.788,7.562,8.034,7.562H92.87L98.227,249.2h12.918l-2.993-55.61Z" fill="#505050"/><path d="M98.618,253.189a51.919,51.919,0,0,0,6.4.869c1.9,0,3.287-4.345,5.765-2.606s3.232,3.046,11.213,6.238c2.764,1.106-.474,3.4-.474,3.4H98.539Z" fill="#414042"/><path d="M236,192.262v4.652c0,2.406.8,7.7-8.181,7.7H201.675l-5.79,47.556H182.731l3.384-58.784Z" fill="#737373"/><path d="M182.1,183.066l-36.375.062c-.884,0-3.2-1.7-3.2-1.7l-4.373-30.947a1.358,1.358,0,0,1,1.375-1.6h38.647a1.9,1.9,0,0,1,1.825,1.6l4.412,31.259C184.538,182.628,182.989,183.066,182.1,183.066Z"/><path d="M181.492,180.093H145.04a1.085,1.085,0,0,1-1.04-.9l-3.923-27.913a.773.773,0,0,1,.786-.9h36.443a1.1,1.1,0,0,1,1.051.913l3.922,27.9A.773.773,0,0,1,181.492,180.093Z" fill="#939393"/><polygon points="180.407 177.864 145.568 177.864 141.913 151.858 176.752 151.858 180.407 177.864" fill="#eaeaea"/><path d="M208.064,129.259l1.014,9.282-11.409,4.449-1.384-12.668C198.478,127.6,207.03,126.1,208.064,129.259Z" fill="#8c562f"/><polygon points="172.101 254.312 172.101 247.802 161.813 249.812 159.402 257.206 172.101 254.312" fill="#8867c8"/><path d="M172.021,253.168a52.058,52.058,0,0,1-6.413.871c-1.9,0-3.167-2.613-3.167-2.613h-2.613s-3.241,3.054-11.243,6.255c-2.771,1.108.475,3.4.475,3.4H172.1Z" fill="#414042"/><path d="M181.708,194.954H174.49c-3.689,0-8.032.852-9.142,9.861-1.524,12.366-5.591,47.353-5.591,47.353H172.91s6.473-41.405,7.756-42.5,23.789-2.191,23.789-2.191l-1.524-12.522Z" fill="#737373"/><path d="M235.266,170.888a4.421,4.421,0,0,0-5.7-3.111c-.131-.028-.131-.028-.291.075,0,0-24.521,7.389-25.072,7.524l2.221,7.391c.393-.065,25.844-5.885,25.844-5.885A4.781,4.781,0,0,0,235.266,170.888Z" fill="#451e7c"/><path d="M235.266,170.888a4.421,4.421,0,0,0-5.7-3.111c-.131-.028-.131-.028-.291.075,0,0-24.521,7.389-25.072,7.524l2.221,7.391c.393-.065,25.844-5.885,25.844-5.885A4.781,4.781,0,0,0,235.266,170.888Z" fill="#025b56"/><path d="M191.42,181.955a1.111,1.111,0,0,1-1.111,1.111H143.252c-.8,0-1.294-.714-1.462-1.538l-.126-.691H191.42Z" fill="#394453"/><path d="M195.8,253.168a52.058,52.058,0,0,1-6.413.871c-1.9,0-3.167-2.613-3.167-2.613h-2.613s-3.241,3.054-11.243,6.255c-2.771,1.108.475,3.4.475,3.4h23.041Z" fill="#414042"/><path d="M211.392,137.185c-5.755-1.017-17.072,1.1-17.072,1.1s2.5-3.808,8.6-4.319S209.839,135.293,211.392,137.185Z" fill="#5c2d91"/><path d="M124.7,181.579l4.613-32.825a1.151,1.151,0,0,0-1.165-1.355h-19a1.612,1.612,0,0,0-1.546,1.355l-4.613,32.825Z" fill="#505050"/><path d="M109.164,149.5a1.616,1.616,0,0,1,1.55-1.359h18.7l-1.143-.743H109.041a1.612,1.612,0,0,0-1.546,1.355l-4.613,32.825h1.774Z" fill="#999"/><path d="M74.137,120.65s4.751-.924,5.675,0Z" fill="#505050"/><path d="M88.653,120.65s-4.751-.924-5.675,0Z" fill="#505050"/><path d="M77.04,122.931a.638.638,0,0,1,0-.924.8.8,0,0,1,1.056,0,.638.638,0,0,1,0,.924c-.4.4-.792.4-1.056,0Z" fill="#505050"/><path d="M85.222,123.062a.8.8,0,0,1,0-1.056.638.638,0,0,1,.924,0,.618.618,0,0,1,0,1.056.638.638,0,0,1-.924,0Z" fill="#505050"/><path d="M170.522,176.794l-4.979.368-5.559-3.015a49.711,49.711,0,0,0-6.132.878,48.74,48.74,0,0,0-5,2.564s-.817,2.177,3.824,1.476c1.18-.178,1.426.905,2.531,1.258a23.977,23.977,0,0,0,5.278,1.721,27.987,27.987,0,0,0,7.558.028l3.619-.3Z" fill="#8e562e"/><path d="M53.988,145.807l.011,0a5.332,5.332,0,0,1,4.608-3.566c2.9-.264,5.446,5.567,4.418,11.794-1.135,3.293-5.234,15.111-6.289,18.674-2.921-1.794-11.553-4.383-11.553-4.383C46.37,164.37,52.932,148.974,53.988,145.807Z" fill="#ec6401"/><path d="M54.777,174.09l.709-2.04a83.82,83.82,0,0,0-9.05-3.333c-.17.423-.377.943-.6,1.509Z" fill="#ddb694"/><path d="M256.034,185.945l-227.341.093v75.048h3.09s6.18-54.234,7.107-59.178,3.09-6.953,10.043-6.953H257.3Z" fill="#724aad"/><path d="M62.52,176.514l12.573,1.069,6-3.087a53.022,53.022,0,0,1,6.519,1.077,51.986,51.986,0,0,1,5.277,2.849s.822,2.34-4.111,1.486c-1.254-.217-1.542.933-2.727,1.283a25.574,25.574,0,0,1-5.668,1.714,24.352,24.352,0,0,1-7.691-.3l-11.361-.78Z" fill="#f6cba7"/><polygon points="13.832 187.524 256.285 187.524 255.631 183.066 13.832 183.077 13.832 187.524" fill="#8867c8"/><path d="M78.477,180.836h46.069a0,0,0,0,1,0,0v.663a1.566,1.566,0,0,1-1.566,1.566H80.5a2.025,2.025,0,0,1-2.025-2.025v-.2A0,0,0,0,1,78.477,180.836Z" fill="#231f20"/><path d="M54.22,175.692l1.266-3.642a83.82,83.82,0,0,0-9.05-3.333c-.592,1.477-1.624,4.065-2.4,6.1-1.151,3.021-.448,7.942,5.622,8.291,6.81.391,23.028-.5,23.028-.5l2.406-5.025Z" fill="#f6cba7"/><path d="M113.4,173.963a1.249,1.249,0,0,1,1.136-1.3h1.836v5.2h-1.836a1.249,1.249,0,0,1-1.136-1.3Zm-1.486.717v1.9a2.647,2.647,0,0,0,2.466,2.767h1.992v2.46a.467.467,0,0,0,.474.512h.269v.743h9.66v-.743h.627c.194.05.484-.148.116-.445V169.4c.368-.2-.116-.456-.116-.456H116.846a.543.543,0,0,0-.474.531v2.441H114.38A2.674,2.674,0,0,0,111.914,174.68Z" fill="#f57800" fill-rule="evenodd"/><path d="M191.357,132.891a31.038,31.038,0,0,0-.166-7.013c.009-.649-.38-.783-.642-.656l-1.563.114c-.389-.134-.9-.529-.768-.917l1.109-5.052a4.008,4.008,0,0,0,.279-1.425l-.3-6.624c5.272-1.814,14.189-4.043,14.189-4.043a14,14,0,0,1,8.731,3.9s10.96,20.991-19.2,23.161C192.111,134.4,191.213,133.929,191.357,132.891Z" fill="#8e562e" fill-rule="evenodd"/><path d="M190.2,103.218c-3.011.792-5.5,2.666-4.552,5.886,1.22,4.423,5.611,3.3,7.492,2.718l2.761-.671a2.052,2.052,0,0,1,2.181,1.951l.259,6.9,1.643.206a.5.5,0,0,0,.749-.364c.224-1.446.8-4.068,3.078-3.834,2.405.505,2.575,2.763,2.1,4.33-.605,1.3-1.723,2.173-1.317,3.648.012.663,2.549,3.537,5.018,5.255,4.218-3.266,4.97-7.919,4.775-11.5.16-4.759-2.638-10.525-6.625-13.127C201.884,100.773,195.475,102,190.2,103.218Z" fill="#333" fill-rule="evenodd"/><path d="M191.37,128.161c.727-.123,3.911-.735,3.911-.735a7.625,7.625,0,0,1-3.815,2.373Z" fill="#cb8c84" fill-rule="evenodd"/><circle cx="192.534" cy="118.792" r="1.115"/><circle cx="23.417" cy="80.907" r="23.417" fill="#f57800"/><circle cx="23.417" cy="80.907" r="20.119" fill="#fff"/><rect x="22.748" y="80.525" width="0.743" height="0.743" fill="#1b1b1b"/><polygon points="24.406 80.609 24.406 80.609 24.736 81.268 25.066 81.268 24.406 80.609" fill="#1b1b1b" fill-rule="evenodd"/><path d="M23.747,81.237l-.66.66Z" fill="#1b1b1b" fill-rule="evenodd"/><polygon points="22.427 79.782 22.757 80.525 23.087 80.525 22.757 79.782 22.427 79.782" fill="#1b1b1b" fill-rule="evenodd"/><polygon points="23.491 80.525 23.491 80.525 23.491 81.185 24.151 80.525 23.491 80.525" fill="#1b1b1b" fill-rule="evenodd"/><polygon points="23.087 80.609 22.427 81.268 22.757 81.268 23.087 80.609" fill="#1b1b1b" fill-rule="evenodd"/><path d="M23.417,80.578l-.33.33Zm.33.691h0Z" fill="#1b1b1b" fill-rule="evenodd"/><path d="M23.307,80.525h0Zm.184.053h0v0Z" fill="#1b1b1b" fill-rule="evenodd"/><path d="M23.417,80.578m-.33.33.4,0v0Zm-.075.33" fill="#1b1b1b" fill-rule="evenodd"/><rect x="21.262" y="62.692" width="3.715" height="3.715" fill="#ffa940"/><rect x="21.262" y="94.643" width="3.715" height="3.715" fill="#ffa940"/><rect x="37.609" y="79.039" width="3.715" height="3.715" transform="translate(120.364 41.43) rotate(90)" fill="#ffa940"/><rect x="5.658" y="79.039" width="3.715" height="3.715" transform="translate(88.413 73.381) rotate(90)" fill="#ffa940"/><polyline points="12.481 68.331 23.417 81.268 33.894 81.268" fill="none" stroke="#724aad" stroke-linecap="round" stroke-linejoin="round" stroke-width="2" fill-rule="evenodd"/><rect x="183.989" y="177.121" width="2.972" height="4.458" fill="#724aad"/><path d="M181.628,146.589a5.909,5.909,0,0,1,3.4-5.189c5.16-2.164,12.9-4.086,14.648-4.661a30.615,30.615,0,0,1,9.2-.375s13.182,2.88,14.906,3.536a5.294,5.294,0,0,1,3.407,3.119s6.872,20.673,8.081,24.6l-33.76,34.707-12.984-3.662S181.494,149.556,181.628,146.589Z" fill="#724aad"/><polygon points="176.008 209.072 235.552 209.429 242.489 261.085 239.834 261.085 233.548 212.787 209.336 212.787 215.914 261.085 213.407 261.085 207.135 212.787 178.521 212.787 168.68 261.085 165.994 261.085 176.008 209.072" fill="#c8c8c8"/><path d="M206.56,146.033c6.019-.232,16.262,0,20.478,0s6.324.353,6.776,4.232c1.151,9.884,4.367,44.438,4.969,52.374.32,4.216-2.108,7.406-8.733,7.919H170.9c0-.513,0-6.685,6.625-6.687h19.4s3.338-43.023,3.764-49.021C201.139,148.5,202.609,146.185,206.56,146.033Z" fill="#220c3d"/><path d="M191.186,154.051c.333-8.489-8.5-16.093-9.782-7.722-.339,2.22-4.343,25.624-4.343,25.624l-12.167,4.9,1.148,6.773c-.356.1,12-1.471,15.821-3.014a10.806,10.806,0,0,0,5.657-6.276C187.991,172.857,190.978,159.357,191.186,154.051Z" fill="#5c2d91"/><polygon points="158.323 155.573 148.803 155.573 148.57 154.087 158.091 154.087 158.323 155.573" fill="#f57800"/><polygon points="158.789 158.545 153.553 158.545 153.32 157.059 158.556 157.059 158.789 158.545" fill="#f57800"/><polygon points="168.786 158.545 159.741 158.545 159.508 157.059 168.553 157.059 168.786 158.545" fill="#b2b2b2"/><polygon points="161.159 162.26 154.019 162.26 153.786 160.774 160.926 160.774 161.159 162.26" fill="#b2b2b2"/><polygon points="172.584 162.26 162.587 162.26 162.354 160.774 172.351 160.774 172.584 162.26" fill="#b2b2b2"/><polygon points="160.197 165.232 150.201 165.232 149.968 163.746 159.964 163.746 160.197 165.232" fill="#f57800"/><polygon points="176.848 168.948 150.667 168.948 150.434 167.462 176.615 167.462 176.848 168.948" fill="#b2b2b2"/><polygon points="161.605 171.92 155.417 171.92 155.184 170.434 161.372 170.434 161.605 171.92" fill="#f57800"/><polygon points="168.269 171.92 162.081 171.92 161.848 170.434 168.036 170.434 168.269 171.92" fill="#b2b2b2"/><polygon points="145.947 155.573 144.043 155.573 143.81 154.087 145.714 154.087 145.947 155.573" fill="#b2b2b2"/><polygon points="146.413 158.545 144.509 158.545 144.276 157.059 146.18 157.059 146.413 158.545" fill="#b2b2b2"/><polygon points="146.879 162.26 144.975 162.26 144.742 160.774 146.646 160.774 146.879 162.26" fill="#b2b2b2"/><polygon points="147.345 165.232 145.441 165.232 145.208 163.746 147.112 163.746 147.345 165.232" fill="#b2b2b2"/><polygon points="147.811 168.948 145.907 168.948 145.674 167.462 147.578 167.462 147.811 168.948" fill="#b2b2b2"/><polygon points="148.277 171.92 146.372 171.92 146.14 170.434 148.044 170.434 148.277 171.92" fill="#b2b2b2"/><polygon points="148.742 175.635 146.838 175.635 146.605 174.149 148.51 174.149 148.742 175.635" fill="#b2b2b2"/></svg>